<svg width="968" height="925" viewBox="0 0 968 925" fill="none" xmlns="http://www.w3.org/2000/svg">
<g id="Shop Layout">
<rect id="CS1" x="368.5" y="536.5" width="231" height="194" fill="#D9D9D9" stroke="black"/>
<rect id="CS2" x="368.5" y="224.5" width="231" height="194" fill="#D9D9D9" stroke="black"/>
<rect id="CG4" x="324.5" y="430.5" width="316" height="84" stroke="black"/>
<rect id="CG3" x="324.5" y="119.5" width="316" height="84" stroke="black"/>
<rect id="CG2" x="664.5" y="239.5" width="161" height="462" stroke="black"/>
<rect id="CG1" x="144.5" y="239.5" width="161" height="462" stroke="black"/>
<rect id="C1" x="164.5" y="343.5" width="41" height="41" fill="#D9D9D9" stroke="black"/>
<rect id="C2" x="243.5" y="343.5" width="41" height="41" fill="#D9D9D9" stroke="black"/>
<rect id="C3" x="164.5" y="417.5" width="41" height="41" fill="#D9D9D9" stroke="black"/>
<rect id="C4" x="243.5" y="417.5" width="41" height="41" fill="#D9D9D9" stroke="black"/>
<rect id="C5" x="164.5" y="264.5" width="41" height="41" fill="#D9D9D9" stroke="black"/>
<rect id="C6" x="243.5" y="264.5" width="41" height="41" fill="#D9D9D9" stroke="black"/>
<rect id="C7" x="164.5" y="639.5" width="41" height="41" fill="#D9D9D9" stroke="black"/>
<rect id="C8" x="243.5" y="639.5" width="41" height="41" fill="#D9D9D9" stroke="black"/>
<rect id="C9" x="164.5" y="486.5" width="41" height="41" fill="#D9D9D9" stroke="black"/>
<rect id="C10" x="243.5" y="486.5" width="41" height="41" fill="#D9D9D9" stroke="black"/>
<rect id="C11" x="503.5" y="451.5" width="41" height="41" fill="#D9D9D9" stroke="black"/>
<rect id="C12" x="582.5" y="451.5" width="41" height="41" fill="#D9D9D9" stroke="black"/>
<rect id="C13" x="345.5" y="451.5" width="41" height="41" fill="#D9D9D9" stroke="black"/>
<rect id="C14" x="424.5" y="451.5" width="41" height="41" fill="#D9D9D9" stroke="black"/>
<rect id="C15" x="503.5" y="142.5" width="41" height="41" fill="#D9D9D9" stroke="black"/>
<rect id="C16" x="582.5" y="142.5" width="41" height="41" fill="#D9D9D9" stroke="black"/>
<rect id="C17" x="345.5" y="142.5" width="41" height="41" fill="#D9D9D9" stroke="black"/>
<rect id="C18" x="424.5" y="142.5" width="41" height="41" fill="#D9D9D9" stroke="black"/>
<rect id="C19" x="164.5" y="560.5" width="41" height="41" fill="#D9D9D9" stroke="black"/>
<rect id="C20" x="243.5" y="560.5" width="41" height="41" fill="#D9D9D9" stroke="black"/>
<rect id="C21" x="684.5" y="343.5" width="41" height="41" fill="#D9D9D9" stroke="black"/>
<rect id="C22" x="763.5" y="343.5" width="41" height="41" fill="#D9D9D9" stroke="black"/>
<rect id="C23" x="684.5" y="417.5" width="41" height="41" fill="#D9D9D9" stroke="black"/>
<rect id="C24" x="763.5" y="417.5" width="41" height="41" fill="#D9D9D9" stroke="black"/>
<rect id="C25" x="684.5" y="264.5" width="41" height="41" fill="#D9D9D9" stroke="black"/>
<rect id="C26" x="763.5" y="264.5" width="41" height="41" fill="#D9D9D9" stroke="black"/>
<rect id="C27" x="684.5" y="639.5" width="41" height="41" fill="#D9D9D9" stroke="black"/>
<rect id="C28" x="763.5" y="639.5" width="41" height="41" fill="#D9D9D9" stroke="black"/>
<rect id="C29" x="684.5" y="486.5" width="41" height="41" fill="#D9D9D9" stroke="black"/>
<rect id="C30" x="763.5" y="486.5" width="41" height="41" fill="#D9D9D9" stroke="black"/>
<rect id="C31" x="684.5" y="560.5" width="41" height="41" fill="#D9D9D9" stroke="black"/>
<rect id="C32" x="763.5" y="560.5" width="41" height="41" fill="#D9D9D9" stroke="black"/>
<rect id="S14" x="865.5" y="222.5" width="102" height="201" fill="#D9D9D9" stroke="black"/>
<rect id="S13" x="865.5" y="422.5" width="102" height="201" fill="#D9D9D9" stroke="black"/>
<rect id="S12" x="865.5" y="622.5" width="102" height="201" fill="#D9D9D9" stroke="black"/>
<rect id="S11" x="705.5" y="824.5" width="262" height="101" fill="#D9D9D9" stroke="black"/>
<rect id="S10" x="504.5" y="824.5" width="201" height="101" fill="#D9D9D9" stroke="black"/>
<rect id="S9" x="304.5" y="824.5" width="201" height="101" fill="#D9D9D9" stroke="black"/>
<rect id="S8" x="103.5" y="824.5" width="201" height="101"  fill="#D9D9D9" stroke="black"/>
<rect id="S7" x="0.5" y="662.5" width="103" height="262" fill="#D9D9D9" stroke="black"/>
<rect id="S6" x="0.5" y="461.5" width="103" height="201" fill="#D9D9D9" stroke="black"/>
<rect id="S5" x="0.5" y="261.5" width="103" height="201" fill="#D9D9D9" stroke="black"/>
<rect id="S4" x="0.5" y="0.5" width="103" height="261" fill="#D9D9D9" stroke="black"/>
<rect id="S3" x="103.5" y="0.5" width="201" height="103"  fill="#D9D9D9" stroke="black"/>
<rect id="S2" x="304.5" y="0.5" width="201" height="103"  fill="#D9D9D9" stroke="black"/>
<rect id="S1" x="505.5" y="0.5" width="201" height="103"  fill="#D9D9D9" stroke="black"/>
</g>
</svg>
